<?xml version="1.0" encoding="utf-8"?>
<!-- Generator: Adobe Illustrator 24.0.3, SVG Export Plug-In . SVG Version: 6.00 Build 0)  -->
<svg version="1.1" id="Layer_1" xmlns="http://www.w3.org/2000/svg" xmlns:xlink="http://www.w3.org/1999/xlink" x="0px" y="0px"
	 viewBox="0 0 35 35" enable-background="new 0 0 35 35" xml:space="preserve">
<path fill="#DA291C" d="M17.5,0H0v17.5V35h17.5H35V17.5V0H17.5z M14.9,28c-0.3,0-0.4-0.1-0.4-0.4v-8.8h-3c-0.3,0-0.4-0.1-0.4-0.4
	v-3.6c0-0.3,0.1-0.4,0.4-0.4h2.8V12c0-0.1,0-0.4,0-0.7c0.1-2.8,2.4-4.8,5.2-4.6h2.8c0.3,0,0.4,0.1,0.4,0.4v3.2
	c0,0.3-0.1,0.4-0.4,0.4h-1.9c-1.2,0-1.6,0.7-1.6,1.5v2H22c0.3,0,0.4,0.1,0.4,0.4v3.5c0,0.3-0.1,0.4-0.4,0.4h-3.1v9
	c0,0.3-0.1,0.4-0.4,0.4h-3.6V28z"/>
</svg>
