<?xml version="1.0" encoding="utf-8"?>
<!-- Generator: Adobe Illustrator 24.0.3, SVG Export Plug-In . SVG Version: 6.00 Build 0)  -->
<svg version="1.1" id="Layer_1" xmlns="http://www.w3.org/2000/svg" xmlns:xlink="http://www.w3.org/1999/xlink" x="0px" y="0px"
	 viewBox="0 0 35 35" enable-background="new 0 0 35 35" xml:space="preserve">
<g>
	<path display="none" fill="#FFFFFF" d="M17.5,12.1c-3,0-5.4,2.4-5.4,5.4s2.4,5.4,5.4,5.4s5.4-2.4,5.4-5.4S20.5,12.1,17.5,12.1z
		 M17.5,21c-1.9,0-3.5-1.6-3.5-3.5s1.6-3.5,3.5-3.5s3.5,1.6,3.5,3.5S19.4,21,17.5,21z M24.5,11.8c0,0.7-0.7,1.3-1.3,1.3
		c-0.7,0-1.3-0.7-1.3-1.3c0-0.7,0.7-1.3,1.3-1.3S24.5,11.2,24.5,11.8z M23.1,6.9H11.9C9.2,6.9,7,9.1,7,11.8v11.3
		c0,2.7,2.2,4.9,4.9,4.9h11.3c2.7,0,4.9-2.2,4.9-4.9V11.9C28.1,9.1,25.9,6.9,23.1,6.9z M25.7,23.1c0,1.4-1.1,2.5-2.5,2.5H11.9
		c-1.4,0-2.5-1.1-2.5-2.5V11.9c0-1.4,1.1-2.5,2.5-2.5h11.3c1.4,0,2.5,1.1,2.5,2.5V23.1z"/>
	<path fill="#DA291C" d="M17.5,0H0v17.5V35h17.5H35V17.5V0H17.5z M28.1,23.1c0,2.7-2.2,4.9-4.9,4.9H11.9C9.2,28,7,25.8,7,23.1V11.9
		C7,9.2,9.2,7,11.9,7h11.3c2.7,0,4.9,2.2,4.9,4.9V23.1z M23.1,9.3H11.9c-1.4,0-2.5,1.1-2.5,2.5v11.3c0,1.4,1.1,2.5,2.5,2.5h11.3
		c1.4,0,2.5-1.1,2.5-2.5V11.9C25.7,10.5,24.5,9.3,23.1,9.3z M17.5,22.9c-3,0-5.4-2.4-5.4-5.4s2.4-5.4,5.4-5.4s5.4,2.4,5.4,5.4
		S20.5,22.9,17.5,22.9z M23.2,13.2c-0.7,0-1.3-0.7-1.3-1.3c0-0.7,0.7-1.3,1.3-1.3c0.7,0,1.3,0.7,1.3,1.3S23.8,13.2,23.2,13.2z
		 M21,17.5c0,1.9-1.6,3.5-3.5,3.5S14,19.4,14,17.5s1.6-3.5,3.5-3.5S21,15.6,21,17.5z"/>
</g>
</svg>
