<?xml version="1.0" encoding="utf-8"?>
<!-- Generator: Adobe Illustrator 24.0.3, SVG Export Plug-In . SVG Version: 6.00 Build 0)  -->
<svg version="1.1" id="Layer_1" xmlns="http://www.w3.org/2000/svg" xmlns:xlink="http://www.w3.org/1999/xlink" x="0px" y="0px"
	 viewBox="0 0 35 35" enable-background="new 0 0 35 35" xml:space="preserve">
<path fill="#DA291C" d="M17.5,0H0v17.5V35h17.5H35V17.5V0H17.5z M7.1,24.9c2.3,0.4,4.7-0.3,6.6-1.9c-1.9-0.1-3.5-1.3-4.2-3.2
	c0.3,0,0.5,0,0.8,0s0.8,0,1.2-0.1c-2-0.3-3.5-2.2-3.5-4.4c0.7,0.4,1.3,0.5,2,0.5c-2-1.2-2.6-3.9-1.3-6.1c2.3,2.8,5.8,4.6,9.3,4.7
	c-0.1-0.3-0.1-0.7-0.1-1.1c0-1.2,0.5-2.4,1.3-3.2c1.9-1.6,4.7-1.6,6.5,0.1c1.1-0.1,2-0.5,2.8-1.1c-0.3,1.1-1.1,1.9-1.9,2.6
	c0.8,0,1.6-0.3,2.6-0.7c-0.7,1.2-1.6,1.9-2.4,2.6c0,0.1,0,0.3,0,0.5c0,2.6-0.7,4.8-2,6.9C20.9,26.9,12.9,28.8,7.1,24.9z"/>
</svg>
